<mxfile host="app.diagrams.net" modified="2023-09-09T19:58:31.665Z" agent="Mozilla/5.0 (Windows NT 10.0; Win64; x64) AppleWebKit/537.36 (KHTML, like Gecko) Chrome/116.0.0.0 Safari/537.36" etag="FaZKyqSkvdqBt_-kM6LF" version="21.7.4" type="github">
  <diagram id="FLARmqn-sCxhorqhwDuB" name="Page-1">
    <mxGraphModel dx="1008" dy="545" grid="0" gridSize="10" guides="1" tooltips="1" connect="1" arrows="1" fold="1" page="1" pageScale="1" pageWidth="3300" pageHeight="4681" math="0" shadow="0">
      <root>
        <mxCell id="0" />
        <mxCell id="1" parent="0" />
        <mxCell id="HNuO8RR3fyhFZEDYtFWN-163" value="" style="rounded=0;whiteSpace=wrap;html=1;shadow=0;glass=0;sketch=0;fillStyle=auto;strokeColor=#000000;strokeWidth=1;fontFamily=Times New Roman;fontSize=20;fillColor=none;gradientColor=none;" parent="1" vertex="1">
          <mxGeometry x="818" y="137.88" width="394" height="278.07" as="geometry" />
        </mxCell>
        <mxCell id="HNuO8RR3fyhFZEDYtFWN-7" value="" style="whiteSpace=wrap;html=1;aspect=fixed;fillColor=#FFFF00;shadow=0;strokeColor=#000000;rounded=0;sketch=0;glass=0;strokeWidth=1;fillStyle=auto;perimeterSpacing=0;fontSize=20;" parent="1" vertex="1">
          <mxGeometry x="30" y="29" width="83.5" height="83.5" as="geometry" />
        </mxCell>
        <mxCell id="HNuO8RR3fyhFZEDYtFWN-8" value="" style="whiteSpace=wrap;html=1;aspect=fixed;fillColor=#FF0000;shadow=0;strokeColor=#000000;rounded=0;sketch=0;glass=0;strokeWidth=1;fillStyle=auto;perimeterSpacing=0;fontSize=20;" parent="1" vertex="1">
          <mxGeometry x="40" y="39" width="83.5" height="83.5" as="geometry" />
        </mxCell>
        <mxCell id="HNuO8RR3fyhFZEDYtFWN-9" value="" style="whiteSpace=wrap;html=1;aspect=fixed;fillColor=#FFFF00;shadow=0;strokeColor=#000000;rounded=0;sketch=0;glass=0;strokeWidth=1;fillStyle=auto;perimeterSpacing=0;fontSize=20;" parent="1" vertex="1">
          <mxGeometry x="49" y="48" width="83.5" height="83.5" as="geometry" />
        </mxCell>
        <mxCell id="HNuO8RR3fyhFZEDYtFWN-10" value="" style="whiteSpace=wrap;html=1;aspect=fixed;fillColor=#FF0000;shadow=0;strokeColor=#000000;rounded=0;sketch=0;glass=0;strokeWidth=1;fillStyle=auto;perimeterSpacing=0;fontSize=20;" parent="1" vertex="1">
          <mxGeometry x="58" y="58" width="83.5" height="83.5" as="geometry" />
        </mxCell>
        <mxCell id="HNuO8RR3fyhFZEDYtFWN-15" value="" style="whiteSpace=wrap;html=1;aspect=fixed;fillColor=#FFFF00;shadow=0;strokeColor=#000000;rounded=0;sketch=0;glass=0;strokeWidth=1;fillStyle=auto;perimeterSpacing=0;fontSize=20;" parent="1" vertex="1">
          <mxGeometry x="66" y="68" width="83.5" height="83.5" as="geometry" />
        </mxCell>
        <mxCell id="HNuO8RR3fyhFZEDYtFWN-16" value="" style="whiteSpace=wrap;html=1;aspect=fixed;fillColor=#FF0000;shadow=0;strokeColor=#000000;rounded=0;sketch=0;glass=0;strokeWidth=1;fillStyle=auto;perimeterSpacing=0;fontSize=20;flipH=0;flipV=1;rotation=0;container=0;" parent="1" vertex="1">
          <mxGeometry x="75" y="79" width="80" height="80" as="geometry" />
        </mxCell>
        <mxCell id="HNuO8RR3fyhFZEDYtFWN-76" value="" style="rounded=0;whiteSpace=wrap;html=1;shadow=0;glass=0;sketch=0;fillStyle=auto;strokeColor=#000000;strokeWidth=2;fillColor=#00FF00;gradientColor=none;direction=south;textDirection=ltr;horizontal=0;fontFamily=Times New Roman;fontSize=20;" parent="1" vertex="1">
          <mxGeometry x="843" y="184.29000000000008" width="46" height="208" as="geometry" />
        </mxCell>
        <mxCell id="HNuO8RR3fyhFZEDYtFWN-78" value="" style="ellipse;whiteSpace=wrap;html=1;aspect=fixed;rounded=0;shadow=0;glass=0;sketch=0;fillStyle=auto;strokeColor=#000000;strokeWidth=1;fontFamily=Times New Roman;fontSize=20;fillColor=#FFFFFF;gradientColor=none;" parent="1" vertex="1">
          <mxGeometry x="855.21" y="199.86" width="21.57" height="21.57" as="geometry" />
        </mxCell>
        <mxCell id="HNuO8RR3fyhFZEDYtFWN-92" value="Input Layers" style="text;html=1;strokeColor=none;fillColor=none;align=center;verticalAlign=middle;whiteSpace=wrap;rounded=0;shadow=0;glass=0;sketch=0;fillStyle=auto;strokeWidth=1;fontFamily=Times New Roman;fontSize=20;" parent="1" vertex="1">
          <mxGeometry x="35.620000000000005" y="169.85999999999999" width="110.25" height="30" as="geometry" />
        </mxCell>
        <mxCell id="HNuO8RR3fyhFZEDYtFWN-112" value="" style="ellipse;whiteSpace=wrap;html=1;aspect=fixed;rounded=0;shadow=0;glass=0;sketch=0;fillStyle=auto;strokeColor=#000000;strokeWidth=1;fontFamily=Times New Roman;fontSize=20;fillColor=#FFFFFF;gradientColor=none;" parent="1" vertex="1">
          <mxGeometry x="855.21" y="239.49" width="21.57" height="21.57" as="geometry" />
        </mxCell>
        <mxCell id="HNuO8RR3fyhFZEDYtFWN-113" value="" style="ellipse;whiteSpace=wrap;html=1;aspect=fixed;rounded=0;shadow=0;glass=0;sketch=0;fillStyle=auto;strokeColor=#000000;strokeWidth=1;fontFamily=Times New Roman;fontSize=20;fillColor=#FFFFFF;gradientColor=none;" parent="1" vertex="1">
          <mxGeometry x="855.21" y="278.06000000000006" width="21.57" height="21.57" as="geometry" />
        </mxCell>
        <mxCell id="HNuO8RR3fyhFZEDYtFWN-114" value="" style="ellipse;whiteSpace=wrap;html=1;aspect=fixed;rounded=0;shadow=0;glass=0;sketch=0;fillStyle=auto;strokeColor=#000000;strokeWidth=1;fontFamily=Times New Roman;fontSize=20;fillColor=#FFFFFF;gradientColor=none;" parent="1" vertex="1">
          <mxGeometry x="855.21" y="313.74" width="21.57" height="21.57" as="geometry" />
        </mxCell>
        <mxCell id="HNuO8RR3fyhFZEDYtFWN-115" value="" style="ellipse;whiteSpace=wrap;html=1;aspect=fixed;rounded=0;shadow=0;glass=0;sketch=0;fillStyle=auto;strokeColor=#000000;strokeWidth=1;fontFamily=Times New Roman;fontSize=20;fillColor=#FFFFFF;gradientColor=none;" parent="1" vertex="1">
          <mxGeometry x="855.21" y="350.6700000000001" width="21.57" height="21.57" as="geometry" />
        </mxCell>
        <mxCell id="HNuO8RR3fyhFZEDYtFWN-117" value="Output Layer" style="text;html=1;strokeColor=none;fillColor=none;align=center;verticalAlign=middle;whiteSpace=wrap;rounded=0;shadow=0;glass=0;sketch=0;fillStyle=auto;strokeWidth=1;fontFamily=Times New Roman;fontSize=20;" parent="1" vertex="1">
          <mxGeometry x="962.5" y="154.29000000000008" width="113" height="30" as="geometry" />
        </mxCell>
        <mxCell id="HNuO8RR3fyhFZEDYtFWN-126" value="Softmax" style="ellipse;whiteSpace=wrap;html=1;aspect=fixed;rounded=0;shadow=0;glass=0;sketch=0;fillStyle=auto;strokeColor=#000000;strokeWidth=1;fontFamily=Times New Roman;fontSize=20;fillColor=#FFFF00;gradientColor=none;" parent="1" vertex="1">
          <mxGeometry x="958.98" y="229.4000000000001" width="95.03" height="95.03" as="geometry" />
        </mxCell>
        <mxCell id="HNuO8RR3fyhFZEDYtFWN-127" value="" style="endArrow=classic;html=1;rounded=0;strokeWidth=2;fontFamily=Times New Roman;fontSize=20;entryX=0;entryY=0.5;entryDx=0;entryDy=0;" parent="1" target="HNuO8RR3fyhFZEDYtFWN-126" edge="1">
          <mxGeometry width="50" height="50" relative="1" as="geometry">
            <mxPoint x="889" y="277.33000000000004" as="sourcePoint" />
            <mxPoint x="965" y="277.33000000000004" as="targetPoint" />
          </mxGeometry>
        </mxCell>
        <mxCell id="HNuO8RR3fyhFZEDYtFWN-128" value="" style="endArrow=none;html=1;rounded=0;strokeWidth=2;fontFamily=Times New Roman;fontSize=20;exitX=0;exitY=0.5;exitDx=0;exitDy=0;" parent="1" source="HNuO8RR3fyhFZEDYtFWN-126" edge="1">
          <mxGeometry width="50" height="50" relative="1" as="geometry">
            <mxPoint x="953" y="274.33000000000004" as="sourcePoint" />
            <mxPoint x="889" y="184.33000000000004" as="targetPoint" />
          </mxGeometry>
        </mxCell>
        <mxCell id="HNuO8RR3fyhFZEDYtFWN-133" value="" style="endArrow=none;html=1;rounded=0;strokeWidth=2;fontFamily=Times New Roman;fontSize=20;entryX=0;entryY=0.5;entryDx=0;entryDy=0;" parent="1" target="HNuO8RR3fyhFZEDYtFWN-126" edge="1">
          <mxGeometry width="50" height="50" relative="1" as="geometry">
            <mxPoint x="889" y="392.33000000000004" as="sourcePoint" />
            <mxPoint x="902" y="303.33000000000004" as="targetPoint" />
          </mxGeometry>
        </mxCell>
        <mxCell id="HNuO8RR3fyhFZEDYtFWN-134" value="" style="endArrow=none;html=1;rounded=0;strokeWidth=2;fontFamily=Times New Roman;fontSize=20;entryX=0;entryY=0.5;entryDx=0;entryDy=0;" parent="1" target="HNuO8RR3fyhFZEDYtFWN-126" edge="1">
          <mxGeometry width="50" height="50" relative="1" as="geometry">
            <mxPoint x="889" y="228.33000000000004" as="sourcePoint" />
            <mxPoint x="961" y="278.33000000000004" as="targetPoint" />
          </mxGeometry>
        </mxCell>
        <mxCell id="HNuO8RR3fyhFZEDYtFWN-135" value="" style="endArrow=none;html=1;rounded=0;strokeWidth=2;fontFamily=Times New Roman;fontSize=20;entryX=0;entryY=0.5;entryDx=0;entryDy=0;" parent="1" target="HNuO8RR3fyhFZEDYtFWN-126" edge="1">
          <mxGeometry width="50" height="50" relative="1" as="geometry">
            <mxPoint x="889" y="341.33000000000004" as="sourcePoint" />
            <mxPoint x="961" y="277.33000000000004" as="targetPoint" />
          </mxGeometry>
        </mxCell>
        <mxCell id="HNuO8RR3fyhFZEDYtFWN-137" value="Bronchiectasis" style="rounded=1;whiteSpace=wrap;html=1;shadow=0;glass=0;sketch=0;fillStyle=auto;strokeColor=#000000;strokeWidth=1;fontFamily=Times New Roman;fontSize=15;fontColor=#FFFFFF;fillColor=#FF0000;gradientColor=none;" parent="1" vertex="1">
          <mxGeometry x="1095" y="182.17000000000007" width="97" height="21.6" as="geometry" />
        </mxCell>
        <mxCell id="HNuO8RR3fyhFZEDYtFWN-139" value="Bronchiolitis" style="rounded=1;whiteSpace=wrap;html=1;shadow=0;glass=0;sketch=0;fillStyle=auto;strokeColor=#000000;strokeWidth=1;fontFamily=Times New Roman;fontSize=15;fontColor=#FFFFFF;fillColor=#FF0000;gradientColor=none;" parent="1" vertex="1">
          <mxGeometry x="1095.5" y="214.2800000000001" width="97" height="21.6" as="geometry" />
        </mxCell>
        <mxCell id="HNuO8RR3fyhFZEDYtFWN-140" value="COPD" style="rounded=1;whiteSpace=wrap;html=1;shadow=0;glass=0;sketch=0;fillStyle=auto;strokeColor=#000000;strokeWidth=1;fontFamily=Times New Roman;fontSize=15;fontColor=#FFFFFF;fillColor=#FF0000;gradientColor=none;" parent="1" vertex="1">
          <mxGeometry x="1094.5" y="246.8800000000001" width="97" height="21.6" as="geometry" />
        </mxCell>
        <mxCell id="HNuO8RR3fyhFZEDYtFWN-141" value="URTI" style="rounded=1;whiteSpace=wrap;html=1;shadow=0;glass=0;sketch=0;fillStyle=auto;strokeColor=#000000;strokeWidth=1;fontFamily=Times New Roman;fontSize=15;fontColor=#FFFFFF;fillColor=#FF0000;gradientColor=none;" parent="1" vertex="1">
          <mxGeometry x="1094.5" y="277.0400000000001" width="98" height="21.6" as="geometry" />
        </mxCell>
        <mxCell id="HNuO8RR3fyhFZEDYtFWN-142" value="Pneumonia" style="rounded=1;whiteSpace=wrap;html=1;shadow=0;glass=0;sketch=0;fillStyle=auto;strokeColor=#000000;strokeWidth=1;fontFamily=Times New Roman;fontSize=15;fontColor=#FFFFFF;fillColor=#FF0000;gradientColor=none;" parent="1" vertex="1">
          <mxGeometry x="1094.5" y="307.83000000000004" width="98" height="21.6" as="geometry" />
        </mxCell>
        <mxCell id="HNuO8RR3fyhFZEDYtFWN-143" value="&amp;nbsp;Wheezing" style="rounded=1;whiteSpace=wrap;html=1;shadow=0;glass=0;sketch=0;fillStyle=auto;strokeColor=#000000;strokeWidth=1;fontFamily=Times New Roman;fontSize=15;fontColor=#FFFFFF;fillColor=#FF0000;gradientColor=none;" parent="1" vertex="1">
          <mxGeometry x="1095.5" y="339.38" width="98" height="21.6" as="geometry" />
        </mxCell>
        <mxCell id="HNuO8RR3fyhFZEDYtFWN-144" value="&lt;font color=&quot;#000000&quot; style=&quot;font-size: 15px;&quot;&gt;Healthy&lt;/font&gt;" style="rounded=1;whiteSpace=wrap;html=1;shadow=0;glass=0;sketch=0;fillStyle=auto;strokeColor=#000000;strokeWidth=1;fontFamily=Times New Roman;fontSize=15;fontColor=#FFFFFF;fillColor=#00FF00;gradientColor=none;" parent="1" vertex="1">
          <mxGeometry x="1095.5" y="370.69000000000005" width="100" height="21.6" as="geometry" />
        </mxCell>
        <mxCell id="HNuO8RR3fyhFZEDYtFWN-146" value="" style="endArrow=classic;html=1;rounded=0;strokeWidth=2;fontFamily=Times New Roman;fontSize=20;fontColor=#000000;entryX=0;entryY=0.5;entryDx=0;entryDy=0;exitX=1;exitY=0.5;exitDx=0;exitDy=0;" parent="1" source="HNuO8RR3fyhFZEDYtFWN-126" target="HNuO8RR3fyhFZEDYtFWN-137" edge="1">
          <mxGeometry width="50" height="50" relative="1" as="geometry">
            <mxPoint x="927" y="324.33000000000004" as="sourcePoint" />
            <mxPoint x="977" y="274.33000000000004" as="targetPoint" />
          </mxGeometry>
        </mxCell>
        <mxCell id="HNuO8RR3fyhFZEDYtFWN-147" value="" style="endArrow=classic;html=1;rounded=0;strokeWidth=2;fontFamily=Times New Roman;fontSize=20;fontColor=#000000;entryX=0;entryY=0.5;entryDx=0;entryDy=0;exitX=1;exitY=0.5;exitDx=0;exitDy=0;" parent="1" source="HNuO8RR3fyhFZEDYtFWN-126" target="HNuO8RR3fyhFZEDYtFWN-139" edge="1">
          <mxGeometry width="50" height="50" relative="1" as="geometry">
            <mxPoint x="927" y="324.33000000000004" as="sourcePoint" />
            <mxPoint x="977" y="274.33000000000004" as="targetPoint" />
          </mxGeometry>
        </mxCell>
        <mxCell id="HNuO8RR3fyhFZEDYtFWN-148" value="" style="endArrow=classic;html=1;rounded=0;strokeWidth=2;fontFamily=Times New Roman;fontSize=20;fontColor=#000000;entryX=0;entryY=0.5;entryDx=0;entryDy=0;exitX=1;exitY=0.5;exitDx=0;exitDy=0;" parent="1" source="HNuO8RR3fyhFZEDYtFWN-126" target="HNuO8RR3fyhFZEDYtFWN-144" edge="1">
          <mxGeometry width="50" height="50" relative="1" as="geometry">
            <mxPoint x="927" y="324.33000000000004" as="sourcePoint" />
            <mxPoint x="977" y="274.33000000000004" as="targetPoint" />
          </mxGeometry>
        </mxCell>
        <mxCell id="HNuO8RR3fyhFZEDYtFWN-149" value="" style="endArrow=classic;html=1;rounded=0;strokeWidth=2;fontFamily=Times New Roman;fontSize=20;fontColor=#000000;entryX=0;entryY=0.5;entryDx=0;entryDy=0;exitX=1;exitY=0.5;exitDx=0;exitDy=0;" parent="1" source="HNuO8RR3fyhFZEDYtFWN-126" target="HNuO8RR3fyhFZEDYtFWN-143" edge="1">
          <mxGeometry width="50" height="50" relative="1" as="geometry">
            <mxPoint x="927" y="324.33000000000004" as="sourcePoint" />
            <mxPoint x="977" y="274.33000000000004" as="targetPoint" />
          </mxGeometry>
        </mxCell>
        <mxCell id="HNuO8RR3fyhFZEDYtFWN-150" value="" style="endArrow=classic;html=1;rounded=0;strokeWidth=2;fontFamily=Times New Roman;fontSize=20;fontColor=#000000;exitX=1;exitY=0.5;exitDx=0;exitDy=0;entryX=0;entryY=0.5;entryDx=0;entryDy=0;" parent="1" source="HNuO8RR3fyhFZEDYtFWN-126" target="HNuO8RR3fyhFZEDYtFWN-140" edge="1">
          <mxGeometry width="50" height="50" relative="1" as="geometry">
            <mxPoint x="927" y="324.33000000000004" as="sourcePoint" />
            <mxPoint x="977" y="274.33000000000004" as="targetPoint" />
          </mxGeometry>
        </mxCell>
        <mxCell id="HNuO8RR3fyhFZEDYtFWN-151" value="" style="endArrow=classic;html=1;rounded=0;strokeWidth=2;fontFamily=Times New Roman;fontSize=20;fontColor=#000000;entryX=0;entryY=0.5;entryDx=0;entryDy=0;exitX=1;exitY=0.5;exitDx=0;exitDy=0;" parent="1" source="HNuO8RR3fyhFZEDYtFWN-126" target="HNuO8RR3fyhFZEDYtFWN-141" edge="1">
          <mxGeometry width="50" height="50" relative="1" as="geometry">
            <mxPoint x="927" y="324.33000000000004" as="sourcePoint" />
            <mxPoint x="977" y="274.33000000000004" as="targetPoint" />
          </mxGeometry>
        </mxCell>
        <mxCell id="HNuO8RR3fyhFZEDYtFWN-152" value="" style="endArrow=classic;html=1;rounded=0;strokeWidth=2;fontFamily=Times New Roman;fontSize=20;fontColor=#000000;entryX=0;entryY=0.5;entryDx=0;entryDy=0;exitX=1;exitY=0.5;exitDx=0;exitDy=0;" parent="1" source="HNuO8RR3fyhFZEDYtFWN-126" target="HNuO8RR3fyhFZEDYtFWN-142" edge="1">
          <mxGeometry width="50" height="50" relative="1" as="geometry">
            <mxPoint x="927" y="324.33000000000004" as="sourcePoint" />
            <mxPoint x="977" y="274.33000000000004" as="targetPoint" />
          </mxGeometry>
        </mxCell>
        <mxCell id="HNuO8RR3fyhFZEDYtFWN-155" value="" style="endArrow=none;html=1;rounded=0;strokeWidth=2;fontFamily=Times New Roman;fontSize=20;fontColor=#000000;entryX=0;entryY=0.5;entryDx=0;entryDy=0;" parent="1" target="HNuO8RR3fyhFZEDYtFWN-126" edge="1">
          <mxGeometry width="50" height="50" relative="1" as="geometry">
            <mxPoint x="889" y="307.33000000000004" as="sourcePoint" />
            <mxPoint x="872" y="291.33000000000004" as="targetPoint" />
          </mxGeometry>
        </mxCell>
        <mxCell id="HNuO8RR3fyhFZEDYtFWN-156" value="" style="endArrow=none;html=1;rounded=0;strokeWidth=2;fontFamily=Times New Roman;fontSize=20;fontColor=#000000;entryX=0;entryY=0.5;entryDx=0;entryDy=0;exitX=0.186;exitY=0.414;exitDx=0;exitDy=0;exitPerimeter=0;" parent="1" target="HNuO8RR3fyhFZEDYtFWN-126" edge="1">
          <mxGeometry width="50" height="50" relative="1" as="geometry">
            <mxPoint x="888.8139999999999" y="252.3927000000001" as="sourcePoint" />
            <mxPoint x="905" y="242.33000000000004" as="targetPoint" />
          </mxGeometry>
        </mxCell>
        <mxCell id="L2ZbHlx48BQ5fT_40NmV-20" value="" style="endArrow=classic;html=1;rounded=0;strokeWidth=2;fontFamily=Times New Roman;fontSize=20;entryX=0;entryY=0.5;entryDx=0;entryDy=0;" edge="1" parent="1">
          <mxGeometry width="50" height="50" relative="1" as="geometry">
            <mxPoint x="176" y="109.58000000000004" as="sourcePoint" />
            <mxPoint x="246" y="109.25" as="targetPoint" />
          </mxGeometry>
        </mxCell>
      </root>
    </mxGraphModel>
  </diagram>
</mxfile>
